<svg xmlns="http://www.w3.org/2000/svg" xmlns:xlink="http://www.w3.org/1999/xlink" width="500" zoomAndPan="magnify" viewBox="0 0 375 374.999991" height="500" preserveAspectRatio="xMidYMid meet" version="1.0"><defs><g/><clipPath id="b858236e16"><path d="M 192 103 L 211 103 L 211 176.660156 L 192 176.660156 Z M 192 103 " clip-rule="nonzero"/></clipPath><clipPath id="21384df656"><path d="M 202 111 L 232.269531 111 L 232.269531 151.746094 L 202 151.746094 Z M 202 111 " clip-rule="nonzero"/></clipPath><clipPath id="b2463049a0"><path d="M 164 103 L 183 103 L 183 176.660156 L 164 176.660156 Z M 164 103 " clip-rule="nonzero"/></clipPath><clipPath id="bf157764f8"><path d="M 142.375 111 L 173 111 L 173 152 L 142.375 152 Z M 142.375 111 " clip-rule="nonzero"/></clipPath><clipPath id="711c90698c"><path d="M 173 72.410156 L 202 72.410156 L 202 100 L 173 100 Z M 173 72.410156 " clip-rule="nonzero"/></clipPath></defs><g clip-path="url(#b858236e16)"><path fill="#264790" d="M 205.898438 176.636719 C 186.921875 149.230469 186.976562 114.632812 210.363281 103.378906 C 201.773438 115.859375 193.789062 149.785156 205.898438 176.636719 " fill-opacity="1" fill-rule="evenodd"/></g><g clip-path="url(#21384df656)"><path fill="#264790" d="M 202.964844 151.734375 C 202.289062 124.621094 214.984375 105.089844 232.277344 113.046875 C 222.871094 114.835938 205.960938 129.136719 202.964844 151.734375 " fill-opacity="1" fill-rule="evenodd"/></g><g clip-path="url(#b2463049a0)"><path fill="#264790" d="M 169.152344 176.636719 C 188.128906 149.230469 188.074219 114.632812 164.6875 103.378906 C 173.277344 115.859375 181.261719 149.777344 169.152344 176.636719 " fill-opacity="1" fill-rule="evenodd"/></g><g clip-path="url(#bf157764f8)"><path fill="#264790" d="M 172.089844 151.734375 C 172.757812 124.621094 160.066406 105.089844 142.773438 113.046875 C 152.179688 114.835938 169.085938 129.136719 172.089844 151.734375 " fill-opacity="1" fill-rule="evenodd"/></g><g clip-path="url(#711c90698c)"><path fill="#e1c67c" d="M 187.523438 72.410156 L 191.996094 82.921875 L 201.992188 82.921875 L 194.761719 89.972656 L 196.46875 99.929688 L 187.523438 95.226562 L 178.582031 99.929688 L 180.292969 89.972656 L 173.058594 82.921875 L 183.054688 82.921875 L 187.523438 72.410156 " fill-opacity="1" fill-rule="nonzero"/></g><g fill="#264790" fill-opacity="1"><g transform="translate(55.256574, 211.975049)"><g><path d="M 13.40625 0.4375 C 9.789062 0.4375 6.890625 -0.597656 4.703125 -2.671875 C 2.515625 -4.753906 1.421875 -7.566406 1.421875 -11.109375 C 1.421875 -14.648438 2.515625 -17.453125 4.703125 -19.515625 C 6.890625 -21.585938 9.851562 -22.625 13.59375 -22.625 C 15.28125 -22.625 16.914062 -22.457031 18.5 -22.125 C 20.082031 -21.800781 21.363281 -21.394531 22.34375 -20.90625 L 22.40625 -15.46875 L 22.125 -15.46875 C 21.570312 -17.507812 20.628906 -18.988281 19.296875 -19.90625 C 17.960938 -20.832031 16.378906 -21.296875 14.546875 -21.296875 C 11.984375 -21.296875 10.015625 -20.378906 8.640625 -18.546875 C 7.273438 -16.722656 6.59375 -14.222656 6.59375 -11.046875 C 6.59375 -7.867188 7.21875 -5.378906 8.46875 -3.578125 C 9.726562 -1.785156 11.507812 -0.890625 13.8125 -0.890625 C 15.476562 -0.890625 16.875 -1.363281 18 -2.3125 C 18.550781 -2.800781 18.953125 -3.375 19.203125 -4.03125 L 19.203125 -8.875 C 19.203125 -9.332031 19.054688 -9.679688 18.765625 -9.921875 C 18.484375 -10.171875 18.082031 -10.296875 17.5625 -10.296875 L 17.046875 -10.296875 L 17.046875 -10.609375 L 25.953125 -10.609375 L 25.953125 -10.296875 L 25.484375 -10.296875 C 24.972656 -10.296875 24.578125 -10.171875 24.296875 -9.921875 C 24.023438 -9.679688 23.890625 -9.332031 23.890625 -8.875 L 23.890625 -3.640625 C 23.066406 -2.566406 21.703125 -1.617188 19.796875 -0.796875 C 17.898438 0.0234375 15.769531 0.4375 13.40625 0.4375 Z M 13.40625 0.4375 "/></g></g></g><g fill="#264790" fill-opacity="1"><g transform="translate(81.113514, 211.975049)"><g><path d="M 4.921875 -19.515625 C 7.171875 -21.585938 10.203125 -22.625 14.015625 -22.625 C 17.828125 -22.625 20.859375 -21.585938 23.109375 -19.515625 C 25.359375 -17.453125 26.484375 -14.644531 26.484375 -11.09375 C 26.484375 -7.539062 25.359375 -4.726562 23.109375 -2.65625 C 20.859375 -0.59375 17.828125 0.4375 14.015625 0.4375 C 10.203125 0.4375 7.171875 -0.59375 4.921875 -2.65625 C 2.671875 -4.726562 1.546875 -7.539062 1.546875 -11.09375 C 1.546875 -14.644531 2.671875 -17.453125 4.921875 -19.515625 Z M 8.6875 -3.625 C 9.988281 -1.800781 11.757812 -0.890625 14 -0.890625 C 16.238281 -0.890625 18.015625 -1.800781 19.328125 -3.625 C 20.640625 -5.457031 21.296875 -7.945312 21.296875 -11.09375 C 21.296875 -14.238281 20.640625 -16.722656 19.328125 -18.546875 C 18.015625 -20.378906 16.238281 -21.296875 14 -21.296875 C 11.757812 -21.296875 9.988281 -20.378906 8.6875 -18.546875 C 7.394531 -16.722656 6.75 -14.238281 6.75 -11.09375 C 6.75 -7.945312 7.394531 -5.457031 8.6875 -3.625 Z M 8.6875 -3.625 "/></g></g></g><g fill="#264790" fill-opacity="1"><g transform="translate(108.301321, 211.975049)"><g><path d="M 1.75 -0.3125 C 2.289062 -0.3125 2.753906 -0.503906 3.140625 -0.890625 C 3.535156 -1.285156 3.742188 -1.757812 3.765625 -2.3125 L 3.765625 -19.875 C 3.742188 -20.414062 3.535156 -20.878906 3.140625 -21.265625 C 2.753906 -21.660156 2.289062 -21.859375 1.75 -21.859375 L 1.328125 -21.859375 L 1.328125 -22.1875 L 10.96875 -22.1875 L 10.9375 -21.859375 L 10.546875 -21.859375 C 10.003906 -21.859375 9.53125 -21.660156 9.125 -21.265625 C 8.726562 -20.878906 8.53125 -20.414062 8.53125 -19.875 L 8.53125 -1.359375 L 12.671875 -1.359375 C 14.210938 -1.359375 15.503906 -1.800781 16.546875 -2.6875 C 17.597656 -3.582031 18.378906 -4.84375 18.890625 -6.46875 L 19.203125 -6.46875 L 17.75 0 L 1.328125 0 L 1.328125 -0.3125 Z M 1.75 -0.3125 "/></g></g></g><g fill="#264790" fill-opacity="1"><g transform="translate(127.187024, 211.975049)"><g><path d="M 12.828125 -22.1875 C 16.566406 -22.1875 19.523438 -21.191406 21.703125 -19.203125 C 23.878906 -17.210938 24.96875 -14.503906 24.96875 -11.078125 C 24.96875 -7.660156 23.878906 -4.957031 21.703125 -2.96875 C 19.523438 -0.988281 16.566406 0 12.828125 0 L 1.328125 0 L 1.328125 -0.3125 L 1.75 -0.3125 C 2.289062 -0.3125 2.753906 -0.503906 3.140625 -0.890625 C 3.535156 -1.285156 3.742188 -1.757812 3.765625 -2.3125 L 3.765625 -20.0625 C 3.765625 -20.5625 3.554688 -20.984375 3.140625 -21.328125 C 2.734375 -21.679688 2.269531 -21.859375 1.75 -21.859375 L 1.328125 -21.859375 L 1.328125 -22.1875 Z M 12.421875 -1.359375 C 13.941406 -1.359375 15.253906 -1.75 16.359375 -2.53125 C 17.472656 -3.3125 18.320312 -4.4375 18.90625 -5.90625 C 19.5 -7.375 19.796875 -8.972656 19.796875 -10.703125 C 19.796875 -12.441406 19.625 -13.914062 19.28125 -15.125 C 18.9375 -16.34375 18.445312 -17.375 17.8125 -18.21875 C 16.5 -19.96875 14.703125 -20.84375 12.421875 -20.84375 L 8.53125 -20.84375 L 8.53125 -1.359375 Z M 12.421875 -1.359375 "/></g></g></g><g fill="#264790" fill-opacity="1"><g transform="translate(152.790454, 211.975049)"><g><path d="M 1.75 -0.3125 C 2.289062 -0.3125 2.753906 -0.503906 3.140625 -0.890625 C 3.535156 -1.285156 3.742188 -1.757812 3.765625 -2.3125 L 3.765625 -19.96875 C 3.722656 -20.507812 3.566406 -20.910156 3.296875 -21.171875 C 2.785156 -21.628906 2.269531 -21.859375 1.75 -21.859375 L 1.328125 -21.859375 L 1.328125 -22.1875 L 13.46875 -22.1875 C 14.5 -22.1875 15.351562 -22.265625 16.03125 -22.421875 C 16.707031 -22.578125 17.117188 -22.6875 17.265625 -22.75 L 17.265625 -17.203125 L 16.953125 -17.234375 L 16.953125 -17.59375 C 16.953125 -18.894531 16.46875 -19.820312 15.5 -20.375 C 15.03125 -20.644531 14.476562 -20.789062 13.84375 -20.8125 L 8.53125 -20.8125 L 8.53125 -11.59375 L 12.703125 -11.59375 C 13.484375 -11.613281 14.128906 -11.882812 14.640625 -12.40625 C 15.148438 -12.925781 15.40625 -13.566406 15.40625 -14.328125 L 15.40625 -14.609375 L 15.71875 -14.609375 L 15.71875 -7.28125 L 15.40625 -7.28125 L 15.40625 -7.546875 C 15.40625 -8.328125 15.15625 -8.96875 14.65625 -9.46875 C 14.15625 -9.976562 13.523438 -10.242188 12.765625 -10.265625 L 8.53125 -10.265625 L 8.53125 -1.359375 L 12.671875 -1.359375 C 14.210938 -1.359375 15.503906 -1.800781 16.546875 -2.6875 C 17.597656 -3.582031 18.378906 -4.84375 18.890625 -6.46875 L 19.203125 -6.46875 L 17.75 0 L 1.328125 0 L 1.328125 -0.3125 Z M 1.75 -0.3125 "/></g></g></g><g fill="#264790" fill-opacity="1"><g transform="translate(172.151464, 211.975049)"><g><path d="M 25.890625 -21.859375 C 25.148438 -21.859375 24.585938 -21.539062 24.203125 -20.90625 C 24.035156 -20.632812 23.941406 -20.320312 23.921875 -19.96875 L 23.921875 -3.609375 C 23.921875 -2.191406 24.015625 -1 24.203125 -0.03125 L 24.296875 0.4375 L 24.015625 0.4375 L 8.015625 -14.796875 L 8.015625 -2.21875 C 8.015625 -1.6875 8.203125 -1.234375 8.578125 -0.859375 C 8.960938 -0.492188 9.421875 -0.3125 9.953125 -0.3125 L 10.546875 -0.3125 L 10.546875 0 L 0.953125 0 L 0.953125 -0.3125 L 1.515625 -0.3125 C 2.066406 -0.3125 2.53125 -0.492188 2.90625 -0.859375 C 3.289062 -1.234375 3.484375 -1.695312 3.484375 -2.25 L 3.484375 -18.703125 C 3.484375 -20.085938 3.390625 -21.25 3.203125 -22.1875 L 3.140625 -22.65625 L 3.421875 -22.65625 L 19.421875 -7.421875 L 19.421875 -19.9375 C 19.398438 -20.476562 19.195312 -20.929688 18.8125 -21.296875 C 18.4375 -21.671875 17.984375 -21.859375 17.453125 -21.859375 L 16.890625 -21.859375 L 16.890625 -22.1875 L 26.484375 -22.1875 L 26.484375 -21.859375 Z M 25.890625 -21.859375 "/></g></g></g><g fill="#264790" fill-opacity="1"><g transform="translate(198.92733, 211.975049)"><g/></g></g><g fill="#264790" fill-opacity="1"><g transform="translate(206.215431, 211.975049)"><g><path d="M 11.34375 0 L 1.328125 0 L 1.328125 -0.3125 L 1.75 -0.3125 C 2.507812 -0.3125 3.085938 -0.640625 3.484375 -1.296875 C 3.648438 -1.597656 3.742188 -1.925781 3.765625 -2.28125 L 3.765625 -19.90625 C 3.742188 -20.445312 3.535156 -20.90625 3.140625 -21.28125 C 2.753906 -21.664062 2.289062 -21.859375 1.75 -21.859375 L 1.328125 -21.859375 L 1.328125 -22.1875 L 10.515625 -22.1875 C 12.972656 -22.1875 14.921875 -21.738281 16.359375 -20.84375 C 17.804688 -19.957031 18.539062 -18.597656 18.5625 -16.765625 C 18.539062 -15.835938 18.34375 -15.023438 17.96875 -14.328125 C 17.269531 -13.015625 16.171875 -12.265625 14.671875 -12.078125 C 16.296875 -11.921875 17.632812 -11.3125 18.6875 -10.25 C 19.75 -9.1875 20.28125 -7.828125 20.28125 -6.171875 C 20.28125 -4.191406 19.484375 -2.664062 17.890625 -1.59375 C 16.296875 -0.53125 14.113281 0 11.34375 0 Z M 13.5 -16.34375 C 13.476562 -19.320312 12.125 -20.8125 9.4375 -20.8125 L 8.53125 -20.8125 L 8.53125 -1.453125 L 9.984375 -1.453125 C 10.003906 -1.453125 10.023438 -1.453125 10.046875 -1.453125 C 11.503906 -1.453125 12.664062 -1.875 13.53125 -2.71875 C 14.394531 -3.570312 14.828125 -4.863281 14.828125 -6.59375 C 14.828125 -8.320312 14.34375 -9.609375 13.375 -10.453125 C 12.40625 -11.296875 11.144531 -11.71875 9.59375 -11.71875 L 9.59375 -12.015625 C 10.695312 -12.015625 11.617188 -12.363281 12.359375 -13.0625 C 13.097656 -13.769531 13.476562 -14.863281 13.5 -16.34375 Z M 13.5 -16.34375 "/></g></g></g><g fill="#264790" fill-opacity="1"><g transform="translate(226.938998, 211.975049)"><g><path d="M 1.75 -0.3125 C 2.289062 -0.3125 2.753906 -0.503906 3.140625 -0.890625 C 3.535156 -1.285156 3.742188 -1.757812 3.765625 -2.3125 L 3.765625 -19.96875 C 3.722656 -20.507812 3.566406 -20.910156 3.296875 -21.171875 C 2.785156 -21.628906 2.269531 -21.859375 1.75 -21.859375 L 1.328125 -21.859375 L 1.328125 -22.1875 L 13.46875 -22.1875 C 14.5 -22.1875 15.351562 -22.265625 16.03125 -22.421875 C 16.707031 -22.578125 17.117188 -22.6875 17.265625 -22.75 L 17.265625 -17.203125 L 16.953125 -17.234375 L 16.953125 -17.59375 C 16.953125 -18.894531 16.46875 -19.820312 15.5 -20.375 C 15.03125 -20.644531 14.476562 -20.789062 13.84375 -20.8125 L 8.53125 -20.8125 L 8.53125 -11.59375 L 12.703125 -11.59375 C 13.484375 -11.613281 14.128906 -11.882812 14.640625 -12.40625 C 15.148438 -12.925781 15.40625 -13.566406 15.40625 -14.328125 L 15.40625 -14.609375 L 15.71875 -14.609375 L 15.71875 -7.28125 L 15.40625 -7.28125 L 15.40625 -7.546875 C 15.40625 -8.328125 15.15625 -8.96875 14.65625 -9.46875 C 14.15625 -9.976562 13.523438 -10.242188 12.765625 -10.265625 L 8.53125 -10.265625 L 8.53125 -1.359375 L 12.671875 -1.359375 C 14.210938 -1.359375 15.503906 -1.800781 16.546875 -2.6875 C 17.597656 -3.582031 18.378906 -4.84375 18.890625 -6.46875 L 19.203125 -6.46875 L 17.75 0 L 1.328125 0 L 1.328125 -0.3125 Z M 1.75 -0.3125 "/></g></g></g><g fill="#264790" fill-opacity="1"><g transform="translate(246.300008, 211.975049)"><g><path d="M 23.390625 -0.3125 L 23.671875 -0.3125 L 23.671875 0 L 13.5625 0 L 13.5625 -0.3125 L 13.84375 -0.3125 C 14.3125 -0.3125 14.65625 -0.453125 14.875 -0.734375 C 15.09375 -1.023438 15.203125 -1.296875 15.203125 -1.546875 C 15.203125 -1.804688 15.148438 -2.0625 15.046875 -2.3125 L 13.5 -6.203125 L 6.078125 -6.203125 L 4.4375 -2.3125 C 4.332031 -2.039062 4.28125 -1.78125 4.28125 -1.53125 C 4.28125 -1.289062 4.394531 -1.023438 4.625 -0.734375 C 4.851562 -0.453125 5.203125 -0.3125 5.671875 -0.3125 L 5.921875 -0.3125 L 5.921875 0 L -0.859375 0 L -0.859375 -0.3125 L -0.578125 -0.3125 C -0.0859375 -0.3125 0.394531 -0.457031 0.875 -0.75 C 1.363281 -1.050781 1.769531 -1.5 2.09375 -2.09375 L 9.40625 -18.65625 C 10.40625 -20.75 10.9375 -22.132812 11 -22.8125 L 11.28125 -22.8125 L 20.6875 -2.15625 C 21.007812 -1.539062 21.410156 -1.078125 21.890625 -0.765625 C 22.378906 -0.460938 22.878906 -0.3125 23.390625 -0.3125 Z M 6.625 -7.546875 L 12.953125 -7.546875 L 9.890625 -15.34375 Z M 6.625 -7.546875 "/></g></g></g><g fill="#264790" fill-opacity="1"><g transform="translate(268.354454, 211.975049)"><g><path d="M 14.5 0.421875 C 10.425781 0.410156 7.226562 -0.613281 4.90625 -2.65625 C 2.582031 -4.707031 1.421875 -7.519531 1.421875 -11.09375 C 1.421875 -14.664062 2.570312 -17.476562 4.875 -19.53125 C 7.175781 -21.59375 10.335938 -22.625 14.359375 -22.625 C 17.421875 -22.625 20.050781 -22.050781 22.25 -20.90625 L 22.3125 -15.46875 L 22.046875 -15.46875 C 20.972656 -19.351562 18.515625 -21.296875 14.671875 -21.296875 C 12.179688 -21.296875 10.210938 -20.390625 8.765625 -18.578125 C 7.316406 -16.773438 6.59375 -14.3125 6.59375 -11.1875 C 6.59375 -8.0625 7.28125 -5.578125 8.65625 -3.734375 C 10.039062 -1.898438 11.921875 -0.953125 14.296875 -0.890625 C 16.742188 -0.890625 18.613281 -1.5 19.90625 -2.71875 C 21.207031 -3.988281 22.113281 -6.164062 22.625 -9.25 L 22.875 -9.25 L 23.1875 -3.796875 C 21.476562 -0.972656 18.582031 0.429688 14.5 0.421875 Z M 14.5 0.421875 "/></g></g></g><g fill="#264790" fill-opacity="1"><g transform="translate(292.436895, 211.975049)"><g><path d="M 16.765625 -0.3125 C 17.316406 -0.3125 17.738281 -0.453125 18.03125 -0.734375 C 18.519531 -1.210938 18.773438 -1.726562 18.796875 -2.28125 L 18.796875 -10.359375 L 8.53125 -10.359375 L 8.53125 -2.3125 C 8.53125 -1.757812 8.726562 -1.285156 9.125 -0.890625 C 9.53125 -0.503906 10.003906 -0.3125 10.546875 -0.3125 L 10.9375 -0.3125 L 10.96875 0 L 1.328125 0 L 1.328125 -0.3125 L 1.75 -0.3125 C 2.289062 -0.3125 2.753906 -0.503906 3.140625 -0.890625 C 3.535156 -1.285156 3.742188 -1.757812 3.765625 -2.3125 L 3.765625 -19.875 C 3.742188 -20.414062 3.535156 -20.878906 3.140625 -21.265625 C 2.753906 -21.660156 2.289062 -21.859375 1.75 -21.859375 L 1.328125 -21.859375 L 1.328125 -22.1875 L 10.96875 -22.1875 L 10.9375 -21.859375 L 10.546875 -21.859375 C 10.003906 -21.859375 9.53125 -21.660156 9.125 -21.265625 C 8.726562 -20.878906 8.53125 -20.414062 8.53125 -19.875 L 8.53125 -11.71875 L 18.796875 -11.71875 L 18.796875 -19.875 C 18.773438 -20.414062 18.566406 -20.878906 18.171875 -21.265625 C 17.785156 -21.660156 17.316406 -21.859375 16.765625 -21.859375 L 16.34375 -21.859375 L 16.34375 -22.1875 L 25.984375 -22.1875 L 25.984375 -21.859375 L 25.578125 -21.859375 C 25.023438 -21.859375 24.546875 -21.660156 24.140625 -21.265625 C 23.742188 -20.878906 23.546875 -20.414062 23.546875 -19.875 L 23.546875 -2.3125 C 23.546875 -1.757812 23.742188 -1.285156 24.140625 -0.890625 C 24.546875 -0.503906 25.023438 -0.3125 25.578125 -0.3125 L 25.984375 -0.3125 L 25.984375 0 L 16.34375 0 L 16.34375 -0.3125 Z M 16.765625 -0.3125 "/></g></g></g><path fill="#e1c67c" d="M 135.648438 225.761719 L 239.335938 225.761719 C 239.652344 225.761719 239.957031 225.886719 240.183594 226.109375 C 240.40625 226.335938 240.53125 226.640625 240.53125 226.957031 L 240.53125 237.164062 C 240.53125 237.480469 240.40625 237.785156 240.183594 238.007812 C 239.957031 238.234375 239.652344 238.359375 239.335938 238.359375 L 135.648438 238.359375 C 134.988281 238.359375 134.453125 237.824219 134.453125 237.164062 L 134.453125 226.957031 C 134.453125 226.296875 134.988281 225.761719 135.648438 225.761719 Z M 135.648438 225.761719 " fill-opacity="1" fill-rule="nonzero"/><g fill="#ffffff" fill-opacity="1"><g transform="translate(139.365028, 234.145853)"><g/></g></g><g fill="#ffffff" fill-opacity="1"><g transform="translate(143.796884, 234.145853)"><g><path d="M 2.984375 0.0625 C 2.484375 0.0625 2.03125 -0.046875 1.625 -0.265625 C 1.226562 -0.492188 0.914062 -0.800781 0.6875 -1.1875 C 0.457031 -1.582031 0.34375 -2.019531 0.34375 -2.5 C 0.34375 -2.988281 0.457031 -3.425781 0.6875 -3.8125 C 0.914062 -4.207031 1.234375 -4.515625 1.640625 -4.734375 C 2.046875 -4.953125 2.5 -5.0625 3 -5.0625 C 3.382812 -5.0625 3.738281 -4.992188 4.0625 -4.859375 C 4.394531 -4.734375 4.675781 -4.539062 4.90625 -4.28125 L 4.4375 -3.828125 C 4.0625 -4.222656 3.59375 -4.421875 3.03125 -4.421875 C 2.65625 -4.421875 2.316406 -4.335938 2.015625 -4.171875 C 1.710938 -4.003906 1.476562 -3.773438 1.3125 -3.484375 C 1.144531 -3.191406 1.0625 -2.863281 1.0625 -2.5 C 1.0625 -2.132812 1.144531 -1.804688 1.3125 -1.515625 C 1.476562 -1.222656 1.710938 -0.992188 2.015625 -0.828125 C 2.316406 -0.660156 2.65625 -0.578125 3.03125 -0.578125 C 3.582031 -0.578125 4.050781 -0.78125 4.4375 -1.1875 L 4.90625 -0.734375 C 4.675781 -0.472656 4.394531 -0.273438 4.0625 -0.140625 C 3.738281 -0.00390625 3.378906 0.0625 2.984375 0.0625 Z M 2.984375 0.0625 "/></g></g></g><g fill="#ffffff" fill-opacity="1"><g transform="translate(151.469465, 234.145853)"><g><path d="M 5.0625 -5.015625 L 5.0625 0 L 4.34375 0 L 4.34375 -2.234375 L 1.46875 -2.234375 L 1.46875 0 L 0.75 0 L 0.75 -5.015625 L 1.46875 -5.015625 L 1.46875 -2.859375 L 4.34375 -2.859375 L 4.34375 -5.015625 Z M 5.0625 -5.015625 "/></g></g></g><g fill="#ffffff" fill-opacity="1"><g transform="translate(159.77845, 234.145853)"><g><path d="M 3.9375 -1.25 L 1.28125 -1.25 L 0.734375 0 L 0 0 L 2.265625 -5.015625 L 2.96875 -5.015625 L 5.25 0 L 4.5 0 Z M 3.6875 -1.828125 L 2.609375 -4.28125 L 1.53125 -1.828125 Z M 3.6875 -1.828125 "/></g></g></g><g fill="#ffffff" fill-opacity="1"><g transform="translate(167.515386, 234.145853)"><g><path d="M 5.390625 0 L 5.390625 -3.65625 L 3.578125 -0.609375 L 3.25 -0.609375 L 1.4375 -3.625 L 1.4375 0 L 0.75 0 L 0.75 -5.015625 L 1.34375 -5.015625 L 3.421875 -1.484375 L 5.484375 -5.015625 L 6.078125 -5.015625 L 6.078125 0 Z M 5.390625 0 "/></g></g></g><g fill="#ffffff" fill-opacity="1"><g transform="translate(176.846913, 234.145853)"><g><path d="M 2.703125 -5.015625 C 3.347656 -5.015625 3.859375 -4.859375 4.234375 -4.546875 C 4.609375 -4.234375 4.796875 -3.804688 4.796875 -3.265625 C 4.796875 -2.722656 4.609375 -2.296875 4.234375 -1.984375 C 3.859375 -1.671875 3.347656 -1.515625 2.703125 -1.515625 L 1.46875 -1.515625 L 1.46875 0 L 0.75 0 L 0.75 -5.015625 Z M 2.6875 -2.140625 C 3.132812 -2.140625 3.476562 -2.234375 3.71875 -2.421875 C 3.957031 -2.617188 4.078125 -2.898438 4.078125 -3.265625 C 4.078125 -3.628906 3.957031 -3.90625 3.71875 -4.09375 C 3.476562 -4.289062 3.132812 -4.390625 2.6875 -4.390625 L 1.46875 -4.390625 L 1.46875 -2.140625 Z M 2.6875 -2.140625 "/></g></g></g><g fill="#ffffff" fill-opacity="1"><g transform="translate(184.512347, 234.145853)"><g><path d="M 0.75 -5.015625 L 1.46875 -5.015625 L 1.46875 0 L 0.75 0 Z M 0.75 -5.015625 "/></g></g></g><g fill="#ffffff" fill-opacity="1"><g transform="translate(189.231732, 234.145853)"><g><path d="M 3.015625 0.0625 C 2.503906 0.0625 2.046875 -0.046875 1.640625 -0.265625 C 1.234375 -0.492188 0.914062 -0.800781 0.6875 -1.1875 C 0.457031 -1.582031 0.34375 -2.019531 0.34375 -2.5 C 0.34375 -2.988281 0.457031 -3.425781 0.6875 -3.8125 C 0.914062 -4.207031 1.234375 -4.515625 1.640625 -4.734375 C 2.046875 -4.953125 2.503906 -5.0625 3.015625 -5.0625 C 3.515625 -5.0625 3.96875 -4.953125 4.375 -4.734375 C 4.78125 -4.515625 5.097656 -4.207031 5.328125 -3.8125 C 5.554688 -3.425781 5.671875 -2.988281 5.671875 -2.5 C 5.671875 -2.019531 5.554688 -1.582031 5.328125 -1.1875 C 5.097656 -0.800781 4.78125 -0.492188 4.375 -0.265625 C 3.96875 -0.046875 3.515625 0.0625 3.015625 0.0625 Z M 3.015625 -0.578125 C 3.378906 -0.578125 3.707031 -0.660156 4 -0.828125 C 4.289062 -0.992188 4.519531 -1.222656 4.6875 -1.515625 C 4.863281 -1.804688 4.953125 -2.132812 4.953125 -2.5 C 4.953125 -2.863281 4.863281 -3.191406 4.6875 -3.484375 C 4.519531 -3.773438 4.289062 -4.003906 4 -4.171875 C 3.707031 -4.335938 3.378906 -4.421875 3.015625 -4.421875 C 2.648438 -4.421875 2.316406 -4.335938 2.015625 -4.171875 C 1.710938 -4.003906 1.476562 -3.773438 1.3125 -3.484375 C 1.144531 -3.191406 1.0625 -2.863281 1.0625 -2.5 C 1.0625 -2.132812 1.144531 -1.804688 1.3125 -1.515625 C 1.476562 -1.222656 1.710938 -0.992188 2.015625 -0.828125 C 2.316406 -0.660156 2.648438 -0.578125 3.015625 -0.578125 Z M 3.015625 -0.578125 "/></g></g></g><g fill="#ffffff" fill-opacity="1"><g transform="translate(197.740939, 234.145853)"><g><path d="M 5.0625 -5.015625 L 5.0625 0 L 4.46875 0 L 1.46875 -3.734375 L 1.46875 0 L 0.75 0 L 0.75 -5.015625 L 1.34375 -5.015625 L 4.34375 -1.28125 L 4.34375 -5.015625 Z M 5.0625 -5.015625 "/></g></g></g><g fill="#ffffff" fill-opacity="1"><g transform="translate(206.049923, 234.145853)"><g><path d="M 2.21875 0.0625 C 1.832031 0.0625 1.460938 0.00390625 1.109375 -0.109375 C 0.765625 -0.234375 0.492188 -0.390625 0.296875 -0.578125 L 0.5625 -1.125 C 0.75 -0.957031 0.988281 -0.816406 1.28125 -0.703125 C 1.582031 -0.597656 1.894531 -0.546875 2.21875 -0.546875 C 2.625 -0.546875 2.929688 -0.613281 3.140625 -0.75 C 3.347656 -0.894531 3.453125 -1.085938 3.453125 -1.328125 C 3.453125 -1.492188 3.394531 -1.628906 3.28125 -1.734375 C 3.164062 -1.847656 3.023438 -1.929688 2.859375 -1.984375 C 2.703125 -2.046875 2.472656 -2.113281 2.171875 -2.1875 C 1.796875 -2.269531 1.488281 -2.359375 1.25 -2.453125 C 1.019531 -2.546875 0.820312 -2.6875 0.65625 -2.875 C 0.5 -3.0625 0.421875 -3.316406 0.421875 -3.640625 C 0.421875 -3.898438 0.488281 -4.140625 0.625 -4.359375 C 0.769531 -4.578125 0.984375 -4.75 1.265625 -4.875 C 1.554688 -5 1.910156 -5.0625 2.328125 -5.0625 C 2.628906 -5.0625 2.921875 -5.023438 3.203125 -4.953125 C 3.492188 -4.878906 3.738281 -4.769531 3.9375 -4.625 L 3.703125 -4.046875 C 3.492188 -4.179688 3.269531 -4.28125 3.03125 -4.34375 C 2.789062 -4.414062 2.554688 -4.453125 2.328125 -4.453125 C 1.921875 -4.453125 1.613281 -4.378906 1.40625 -4.234375 C 1.207031 -4.085938 1.109375 -3.894531 1.109375 -3.65625 C 1.109375 -3.488281 1.164062 -3.347656 1.28125 -3.234375 C 1.394531 -3.128906 1.535156 -3.046875 1.703125 -2.984375 C 1.878906 -2.929688 2.113281 -2.875 2.40625 -2.8125 C 2.78125 -2.71875 3.082031 -2.625 3.3125 -2.53125 C 3.539062 -2.4375 3.738281 -2.296875 3.90625 -2.109375 C 4.070312 -1.929688 4.15625 -1.679688 4.15625 -1.359375 C 4.15625 -1.097656 4.082031 -0.859375 3.9375 -0.640625 C 3.789062 -0.429688 3.570312 -0.257812 3.28125 -0.125 C 2.988281 0 2.632812 0.0625 2.21875 0.0625 Z M 2.21875 0.0625 "/></g></g></g><g fill="#ffffff" fill-opacity="1"><g transform="translate(212.993146, 234.145853)"><g><path d="M 5.0625 -5.015625 L 5.0625 0 L 4.34375 0 L 4.34375 -2.234375 L 1.46875 -2.234375 L 1.46875 0 L 0.75 0 L 0.75 -5.015625 L 1.46875 -5.015625 L 1.46875 -2.859375 L 4.34375 -2.859375 L 4.34375 -5.015625 Z M 5.0625 -5.015625 "/></g></g></g><g fill="#ffffff" fill-opacity="1"><g transform="translate(221.302129, 234.145853)"><g><path d="M 0.75 -5.015625 L 1.46875 -5.015625 L 1.46875 0 L 0.75 0 Z M 0.75 -5.015625 "/></g></g></g><g fill="#ffffff" fill-opacity="1"><g transform="translate(226.021514, 234.145853)"><g><path d="M 2.703125 -5.015625 C 3.347656 -5.015625 3.859375 -4.859375 4.234375 -4.546875 C 4.609375 -4.234375 4.796875 -3.804688 4.796875 -3.265625 C 4.796875 -2.722656 4.609375 -2.296875 4.234375 -1.984375 C 3.859375 -1.671875 3.347656 -1.515625 2.703125 -1.515625 L 1.46875 -1.515625 L 1.46875 0 L 0.75 0 L 0.75 -5.015625 Z M 2.6875 -2.140625 C 3.132812 -2.140625 3.476562 -2.234375 3.71875 -2.421875 C 3.957031 -2.617188 4.078125 -2.898438 4.078125 -3.265625 C 4.078125 -3.628906 3.957031 -3.90625 3.71875 -4.09375 C 3.476562 -4.289062 3.132812 -4.390625 2.6875 -4.390625 L 1.46875 -4.390625 L 1.46875 -2.140625 Z M 2.6875 -2.140625 "/></g></g></g><g fill="#ffffff" fill-opacity="1"><g transform="translate(233.690929, 234.145853)"><g/></g></g></svg>